<svg viewBox="0 0 640 220" xmlns="http://www.w3.org/2000/svg">
  <g transform="translate(72 48)">
    <g stroke="#111827" stroke-width="4.5" fill="#FFFFFF" stroke-linecap="round" stroke-linejoin="round">
      <rect x="48" y="0" width="48" height="26" rx="6"/>
      <line x1="60" y1="13" x2="66" y2="13"/>
      <line x1="72" y1="13" x2="78" y2="13"/>
      <line x1="84" y1="13" x2="90" y2="13"/>
      <path d="M32 26H112V58H32Z"/>
      <path d="M32 58L52 88H92L112 58"/>
      <line x1="72" y1="26" x2="72" y2="88"/>
      <line x1="32" y1="58" x2="72" y2="88"/>
      <line x1="112" y1="58" x2="72" y2="88"/>
      <path d="M20 104C32 100 44 100 56 104C68 108 80 108 92 104C104 100 116 100 128 104" stroke-width="3.2" fill="none"/>
      <path d="M28 116C40 112 52 112 64 116C76 120 88 120 100 116C112 112 124 112 136 116" stroke-width="2.4" fill="none" opacity="0.75"/>
    </g>

    <text x="214" y="72" font-family="'Montserrat', 'Helvetica Neue', Arial, sans-serif" font-size="68" font-weight="600" fill="#111827" letter-spacing="5" dominant-baseline="middle">NEXTOPS</text>
  </g>
</svg>